<svg xmlns="http://www.w3.org/2000/svg" aria-hidden="true" overflow="hidden" style="position:absolute;width:0;height:0">
  <defs>
    <symbol id="icon-Arrow" viewBox="0 0 43 32">
      <path d="m5.809 16 11.89-11.89c.951-.951.951-2.446 0-3.397s-2.446-.951-3.397 0L.714 14.301a2.379 2.379 0 0 0 0 3.397l13.588 13.588c.951.951 2.446.951 3.397 0s.951-2.446 0-3.397l-11.89-11.89z"/>
      <path d="M42.676 13.598v4.804H2.412v-4.804h40.264zM5.809 16l11.89-11.89c.951-.951.951-2.446 0-3.397s-2.446-.951-3.397 0L.714 14.301a2.379 2.379 0 0 0 0 3.397l13.588 13.588c.951.951 2.446.951 3.397 0s.951-2.446 0-3.397l-11.89-11.89z"/>
    </symbol>
    <symbol id="icon-instagram" viewBox="0 0 32 32">
      <path d="M16 10.25a5.752 5.752 0 0 0-5.64 6.872 5.753 5.753 0 0 0 7.84 4.191A5.747 5.747 0 0 0 21.75 16 5.751 5.751 0 0 0 16 10.25zm0 10a4.248 4.248 0 0 1-3.005-7.255 4.253 4.253 0 0 1 6.539.644A4.25 4.25 0 0 1 20.25 16 4.265 4.265 0 0 1 16 20.25zm5.5-16.5h-11a6.75 6.75 0 0 0-6.75 6.75v11a6.75 6.75 0 0 0 6.75 6.75h11a6.75 6.75 0 0 0 6.75-6.75v-11a6.75 6.75 0 0 0-6.75-6.75zm5.25 17.75a5.247 5.247 0 0 1-5.25 5.25h-11a5.247 5.247 0 0 1-5.25-5.25v-11a5.247 5.247 0 0 1 5.25-5.25h11a5.247 5.247 0 0 1 5.25 5.25v11zm-3-12a1.243 1.243 0 0 1-.772 1.154 1.256 1.256 0 0 1-1.362-.271 1.25 1.25 0 1 1 2.133-.884z"/>
    </symbol>
    <symbol id="icon-facebook" viewBox="0 0 32 32">
      <path d="M23.987 2.128a37.26 37.26 0 0 0-4.049-.208c-4.484 0-7.271 2.856-7.271 7.453v3.121H8.9a.665.665 0 0 0-.666.666v5.133a.665.665 0 0 0 .666.666h3.767v10.293a.665.665 0 0 0 .666.666h5.304a.665.665 0 0 0 .666-.666V18.959h3.755a.662.662 0 0 0 .661-.58l.663-5.133c.012-.094.004-.19-.023-.281s-.074-.175-.137-.246a.65.65 0 0 0-.501-.227h-4.417V9.88c0-1.293.26-1.833 1.877-1.833H23.9a.665.665 0 0 0 .666-.666V2.788a.667.667 0 0 0-.581-.661zm-.754 4.587-2.053.001c-2.876 0-3.209 1.808-3.209 3.167v3.28a.665.665 0 0 0 .665.667h4.328l-.492 3.8h-3.835a.665.665 0 0 0-.666.666v10.291H14V18.296a.665.665 0 0 0-.666-.666H9.569v-3.8h3.765a.665.665 0 0 0 .666-.666V9.375c0-3.832 2.22-6.12 5.937-6.12 1.345 0 2.56.073 3.296.137v3.324z"/>
    </symbol>
    <symbol id="icon-telephone" viewBox="0 0 32 32">
      <path d="m27.655 22.957-.173-.216c-1.372-1.735-2.519-2.637-3.503-2.756-.851-.116-1.673.472-2.548 1.077l-.935.584a2.054 2.054 0 0 1-.327.132c-.547.155-1.927.245-2.708-.469-.909-.832-2.32-2.355-3.417-3.685-1.048-1.377-2.2-3.095-2.801-4.176-.508-.916-.083-2.197.201-2.672.056-.093.129-.185.211-.276l.824-.761c.012-.012.017-.027.028-.037.008-.008.021-.005.031-.012.744-.628 1.513-1.275 1.619-2.105.124-.976-.483-2.296-1.857-4.029l-.168-.216C11.281 2.249 9.995.6 8.147.872c-.727.108-1.376.356-2.045.776-.007.004-.011.012-.016.016s-.012.004-.017.008l-.932.691c-.009.005-.015.017-.024.025-.007.007-.017.008-.025.015a13.74 13.74 0 0 0-.323.28c-.945.843-2.992 3.289-1.596 7.815.901 2.923 2.76 6.333 5.388 9.883l-.025.021 1.449 1.805.012-.009c2.849 3.371 5.749 5.976 8.407 7.553 1.773 1.053 3.323 1.401 4.597 1.401 1.677 0 2.879-.603 3.481-.995l.379-.253c.043-.029.073-.071.104-.108l.825-.621c.009-.008.015-.019.024-.027.004-.004.011-.003.016-.007.587-.536.993-1.097 1.276-1.763.732-1.705-.579-3.339-1.445-4.42zm.465 4.002c-.22.517-.541.957-1.005 1.384l-1.228.924c-1.112.723-3.489 1.616-6.943-.435-2.657-1.577-5.583-4.244-8.461-7.712l-.779-.984c-2.711-3.595-4.617-7.037-5.517-9.955-1.169-3.793.304-5.828 1.291-6.707.1-.091.2-.175.299-.259l.004-.004.895-.663a4.067 4.067 0 0 1 1.628-.624c1.239-.187 2.247 1.12 2.987 2.069l.173.22C13 6.15 13.148 7.072 13.1 7.448c-.053.417-.688.952-1.248 1.423l-.079.067c-.003.003-.004.007-.007.009l-.012.007-.852.788c-.005.005-.008.012-.013.019s-.016.009-.021.016a3.007 3.007 0 0 0-.337.449c-.479.801-.931 2.457-.217 3.739.623 1.12 1.808 2.889 2.897 4.319 1.139 1.381 2.591 2.949 3.532 3.809.705.644 1.687.86 2.536.86.455 0 .872-.063 1.188-.152.167-.048.339-.117.516-.204.011-.005.016-.015.027-.021.005-.003.013-.001.019-.005l.989-.619c.032-.021.053-.049.08-.076l.012.013c.609-.423 1.304-.919 1.739-.847.385.047 1.26.417 2.799 2.36l.177.223c.749.935 1.776 2.215 1.297 3.333z"/>
    </symbol>
    <symbol id="icon-advantages-icon-right" viewBox="0 0 38 32">
      <path d="M37.521 7.485c-0.318-0.293-0.723-0.496-1.171-0.567l-0.013-0.002c-0.096-0.015-0.206-0.024-0.319-0.024-0.349 0-0.679 0.083-0.971 0.229l0.012-0.006-8.457 4.126c-0.044 0.027-0.097 0.043-0.153 0.043-0.079 0-0.151-0.031-0.204-0.083l0 0c-0.032-0.030-0.058-0.065-0.077-0.105l-0.001-0.002-4.941-9.763c-0.198-0.401-0.489-0.731-0.845-0.97l-0.009-0.006c-0.334-0.223-0.745-0.356-1.187-0.357h-0c-0.418 0-0.828 0.124-1.188 0.358s-0.655 0.572-0.855 0.975l-4.939 9.761c-0.020 0.043-0.047 0.079-0.079 0.109l-0 0c-0.031 0.029-0.068 0.051-0.109 0.065l-0.002 0.001c-0.040 0.013-0.083 0.018-0.125 0.013-0.045-0.005-0.086-0.020-0.122-0.042l0.001 0.001-8.456-4.125c-0.282-0.145-0.615-0.23-0.967-0.23-0.109 0-0.217 0.008-0.321 0.024l0.012-0.001c-0.461 0.072-0.865 0.274-1.184 0.568l0.002-0.001c-0.337 0.31-0.59 0.705-0.727 1.151l-0.005 0.018c-0.077 0.245-0.121 0.527-0.121 0.819 0 0.212 0.023 0.419 0.068 0.618l-0.004-0.019 4.269 19.947c0.072 0.338 0.205 0.655 0.393 0.933s0.424 0.513 0.696 0.688c0.357 0.241 0.769 0.369 1.188 0.369 0.228-0.002 0.447-0.036 0.654-0.097l-0.017 0.004c3.578-1.133 7.692-1.786 11.959-1.786 4.246 0 8.34 0.646 12.191 1.846l-0.29-0.078c0.194 0.064 0.418 0.101 0.65 0.101 0.102 0 0.202-0.007 0.3-0.021l-0.011 0.001c0.336-0.048 0.638-0.165 0.902-0.336l-0.009 0.005c0.28-0.184 0.514-0.414 0.696-0.683l0.005-0.009c0.182-0.268 0.32-0.582 0.394-0.92l0.003-0.018 4.253-19.948c0.044-0.186 0.070-0.399 0.070-0.619 0-0.283-0.042-0.555-0.12-0.812l0.005 0.020c-0.138-0.464-0.39-0.858-0.722-1.166l-0.002-0.002zM36.348 9.548l-4.269 19.947c-0.023 0.098-0.077 0.18-0.151 0.239l-0.001 0.001c-0.053 0.029-0.116 0.046-0.182 0.046-0.030 0-0.059-0.003-0.087-0.010l0.003 0c-3.732-1.18-8.023-1.86-12.474-1.86s-8.742 0.68-12.777 1.942l0.303-0.082c-0.027 0.009-0.059 0.014-0.092 0.014-0.064 0-0.124-0.020-0.173-0.053l0.001 0.001c-0.040-0.027-0.074-0.060-0.099-0.1l-0.001-0.001c-0.025-0.039-0.044-0.085-0.054-0.134l-0-0.002-4.269-19.947c-0.004-0.022-0.006-0.047-0.006-0.073 0-0.091 0.029-0.175 0.078-0.243l-0.001 0.001c0.031-0.043 0.070-0.079 0.115-0.104l0.002-0.001c0.043-0.024 0.093-0.038 0.147-0.040h0.001l0.134 0.037 8.472 4.144c0.278 0.143 0.607 0.226 0.956 0.226 0.265 0 0.52-0.049 0.754-0.137l-0.015 0.005c0.576-0.225 1.033-0.648 1.296-1.183l0.006-0.014 4.94-9.762c0.026-0.058 0.066-0.106 0.115-0.14l0.001-0.001c0.047-0.032 0.105-0.052 0.167-0.052s0.121 0.019 0.168 0.052l-0.001-0.001c0.051 0.035 0.092 0.083 0.117 0.139l0.001 0.002 4.939 9.762c0.281 0.565 0.747 0.993 1.302 1.198s1.161 0.171 1.695-0.093l8.473-4.144c0.040-0.020 0.087-0.032 0.137-0.032 0.083 0 0.159 0.033 0.214 0.087l-0-0c0.049 0.044 0.086 0.1 0.106 0.164l0.001 0.003c0.012 0.036 0.019 0.078 0.019 0.122 0 0.029-0.003 0.056-0.009 0.083l0-0.003zM25.549 23.546c-0.028 0.277-0.149 0.521-0.331 0.706l0-0c-0.172 0.174-0.41 0.284-0.673 0.288h-0.101c-1.578-0.185-3.405-0.29-5.258-0.29s-3.68 0.105-5.477 0.31l0.22-0.020c-0.032 0.004-0.068 0.006-0.105 0.006-0.243 0-0.464-0.092-0.631-0.243l0.001 0.001c-0.205-0.186-0.342-0.445-0.369-0.735l-0-0.005c-0.003-0.030-0.004-0.066-0.004-0.101 0-0.267 0.087-0.513 0.233-0.712l-0.002 0.003c0.158-0.217 0.398-0.367 0.673-0.405l0.005-0.001c1.638-0.202 3.535-0.318 5.458-0.318s3.82 0.115 5.683 0.34l-0.225-0.022c0.262 0.033 0.503 0.175 0.671 0.398 0.17 0.223 0.252 0.509 0.233 0.799z"></path>
    </symbol>
    <symbol id="icon-advantages-icon-center" viewBox="0 0 41 32">
       <path d="M13.38 10.379h-12.675c-0.389 0-0.704 0.301-0.704 0.675v4.054c0 0.374 0.315 0.675 0.704 0.675h0.705v15.541c0 0.374 0.315 0.676 0.704 0.676h9.86c0.389 0 0.705-0.302 0.705-0.676v-15.541h0.704c0.389 0 0.704-0.301 0.704-0.675v-4.053c0-0.375-0.315-0.677-0.704-0.677zM5.635 23.216v-1.351h4.225v-1.351h-4.225v-1.351h5.633v8.783h-5.634v-3.378h1.409v-1.351h-1.409zM11.268 17.811h-6.338c-0.389 0-0.704 0.302-0.704 0.676v10.135c0 0.374 0.315 0.676 0.704 0.676h6.338v1.351h-8.451v-14.866h8.45v2.027zM12.678 14.433h-11.269v-2.703h11.268v2.702zM22.711 10.505v-4.94c-0.002-0.384-0.314-0.695-0.699-0.695-0.002 0-0.003 0-0.005 0h-0.705v-3.477h1.41v-1.392h-7.747v1.391h4.93v3.478h-0.706c-0.001 0-0.003-0-0.005-0-0.385 0-0.697 0.311-0.699 0.696v4.94c-1.605 0.322-2.817 1.727-2.817 3.407v17.391c0 0.384 0.315 0.696 0.705 0.696h8.45c0.002 0 0.004 0 0.006 0 0.385 0 0.697-0.311 0.699-0.696v-17.39c0-1.678-1.212-3.085-2.817-3.408zM19.894 6.261h1.409v4.174h-1.41v-4.174zM19.19 11.826h2.817c1.163 0 2.112 0.937 2.112 2.087v0.696h-7.043v-0.696c0-1.15 0.948-2.087 2.113-2.087zM24.12 27.826h-7.043v-1.391h2.817v-1.391h-2.817v-9.044h7.043v11.826zM17.077 30.609v-1.391h7.043v1.391h-7.043zM40.714 9.514h-11.884c-0.366 0.006-0.66 0.304-0.66 0.67 0 0.004 0 0.007 0 0.011v-0.001 21.124c0 0.377 0.296 0.682 0.66 0.682h11.884c0.365 0 0.66-0.305 0.66-0.682v-21.124c0-0.003 0-0.007 0-0.011 0-0.367-0.294-0.664-0.659-0.67h-0.001zM40.053 30.637h-10.563v-19.761h10.563v19.76z"></path>
       <path d="M8.802 23.351h1.761v0.865h-1.761v-0.865zM21.127 25.081h1.76v1.729h-1.76v-1.729z"></path>
       <path d="M20.687 23.351c1.699 0 3.080-1.358 3.080-3.027s-1.381-3.027-3.080-3.027c-1.698 0-3.080 1.357-3.080 3.027s1.382 3.027 3.080 3.027zM20.687 18.811c0.85 0 1.541 0.678 1.541 1.513s-0.691 1.513-1.541 1.513c-0.849 0-1.54-0.679-1.54-1.513s0.69-1.513 1.54-1.513zM33.121 16.432h3.302c1.274 0 2.311-0.97 2.311-2.162s-1.037-2.163-2.311-2.163h-3.302c-1.273 0-2.31 0.971-2.31 2.163s1.037 2.162 2.31 2.162zM37.412 14.271c0 0.51-0.443 0.926-0.99 0.926h-0.99v-1.853h0.99c0.546 0 0.99 0.416 0.99 0.927zM33.121 13.344h0.991v1.853h-0.99c-0.546 0-0.991-0.416-0.991-0.926s0.444-0.927 0.99-0.927zM33.121 23.351h3.302c1.274 0 2.311-1.163 2.311-2.594s-1.037-2.595-2.311-2.595h-3.302c-1.273 0-2.31 1.163-2.31 2.594s1.037 2.595 2.31 2.595zM37.412 20.757c0 0.612-0.443 1.111-0.99 1.111h-0.99v-2.223h0.99c0.546 0 0.99 0.5 0.99 1.112zM33.121 19.644h0.991v2.224h-0.99c-0.546 0-0.991-0.499-0.991-1.112s0.444-1.112 0.99-1.112zM33.121 29.405h3.302c1.274 0 2.311-1.163 2.311-2.594s-1.037-2.595-2.311-2.595h-3.302c-1.273 0-2.31 1.163-2.31 2.594s1.037 2.595 2.31 2.595zM37.412 26.811c0 0.612-0.443 1.111-0.99 1.111h-0.99v-2.223h0.99c0.546 0 0.99 0.499 0.99 1.111zM33.121 25.699h0.991v2.223h-0.99c-0.546 0-0.991-0.499-0.991-1.112s0.444-1.111 0.99-1.111z"></path>
    </symbol>
    <symbol id="icon-advantages-icon-left" viewBox="0 0 29 32">
       <path d="M14.389 0c-1.149 0-2.221 0.523-3.136 1.38-0.914 0.856-1.697 2.050-2.349 3.495-0.137 0.303-0.268 0.618-0.393 0.942-0.239-0.042-0.586-0.089-0.935-0.125l-0.079-0.007c-0.33-0.036-0.73-0.062-1.134-0.073l-0.020-0c-1.123-0.026-2.149 0.088-3.048 0.36-1.199 0.363-2.188 1.031-2.763 2.026s-0.658 2.185-0.373 3.406c0.284 1.22 0.926 2.495 1.853 3.783 0.194 0.27 0.401 0.54 0.62 0.812-0.214 0.264-0.42 0.535-0.62 0.81-0.924 1.288-1.566 2.562-1.85 3.783s-0.201 2.411 0.373 3.406c0.575 0.995 1.564 1.663 2.763 2.026s2.624 0.445 4.202 0.287c0.427-0.043 0.774-0.089 1.117-0.145l-0.104 0.014c0.122 0.318 0.252 0.632 0.392 0.943 0.653 1.446 1.435 2.639 2.35 3.495s1.987 1.38 3.136 1.38c1.148 0 2.221-0.523 3.136-1.38s1.697-2.050 2.349-3.495c0.14-0.311 0.271-0.626 0.394-0.944 0.343 0.054 0.681 0.098 1.011 0.131 1.578 0.157 3.003 0.076 4.202-0.287s2.189-1.031 2.764-2.026c0.574-0.995 0.658-2.185 0.372-3.406-0.284-1.22-0.926-2.495-1.851-3.783-0.233-0.322-0.437-0.586-0.647-0.844l0.027 0.034c0.214-0.265 0.422-0.536 0.62-0.812 0.926-1.288 1.568-2.563 1.853-3.783s0.201-2.411-0.373-3.406c-0.574-0.994-1.564-1.662-2.763-2.026-0.899-0.273-1.926-0.387-3.048-0.36-0.423 0.011-0.824 0.037-1.219 0.078l0.065-0.005c-0.428 0.043-0.774 0.089-1.118 0.145l0.105-0.014c-0.166-0.438-0.298-0.748-0.439-1.054l0.046 0.112c-0.653-1.446-1.435-2.639-2.349-3.495-0.915-0.857-1.988-1.38-3.137-1.38zM14.389 1.278c0.766 0 1.518 0.337 2.263 1.034s1.457 1.754 2.059 3.089c0.098 0.217 0.191 0.438 0.279 0.659-1.465 0.325-3.016 0.825-4.601 1.492-1.585-0.667-3.136-1.167-4.6-1.492 0.090-0.226 0.183-0.446 0.279-0.659 0.602-1.335 1.314-2.391 2.058-3.089s1.497-1.034 2.263-1.034zM5.938 6.889c0.019-0 0.043-0 0.066-0 0.481 0 0.957 0.025 1.425 0.074l-0.059-0.005c0.233 0.023 0.47 0.053 0.713 0.088-0.45 1.431-0.793 3.024-1.008 4.731-1.371 1.039-2.579 2.133-3.594 3.239-0.148-0.187-0.292-0.379-0.432-0.573-0.855-1.189-1.414-2.333-1.645-3.328s-0.148-1.813 0.235-2.476c0.383-0.664 1.050-1.146 2.028-1.442 0.64-0.195 1.408-0.299 2.272-0.307zM22.84 6.889c0.864 0.007 1.631 0.112 2.272 0.306 0.977 0.297 1.644 0.779 2.027 1.443s0.468 1.482 0.236 2.476-0.791 2.139-1.645 3.328c-0.14 0.194-0.284 0.385-0.433 0.573-1.014-1.105-2.222-2.198-3.592-3.239-0.215-1.707-0.558-3.3-1.009-4.731 0.242-0.035 0.479-0.065 0.713-0.088 0.41-0.044 0.885-0.069 1.365-0.069 0.023 0 0.047 0 0.070 0h-0.004zM19.426 7.275c0.319 0.956 0.608 2.124 0.811 3.32l0.021 0.147c-1.206-0.828-2.598-1.645-4.047-2.363l-0.203-0.091c1.185-0.441 2.334-0.78 3.418-1.014zM9.352 7.275c1.339 0.296 2.481 0.645 3.585 1.071l-0.169-0.057c-1.651 0.809-3.042 1.625-4.367 2.53l0.12-0.077c0.223-1.343 0.512-2.51 0.88-3.641l-0.049 0.175zM14.389 8.947c1.269 0.563 2.302 1.097 3.301 1.683l-0.154-0.084c1.154 0.668 2.12 1.305 3.049 1.99l-0.089-0.063c0.123 1.13 0.189 2.311 0.189 3.526s-0.066 2.395-0.188 3.525c-0.839 0.621-1.805 1.257-2.805 1.842l-0.155 0.084c-0.845 0.503-1.879 1.038-2.942 1.517l-0.206 0.083c-1.27-0.562-2.303-1.097-3.302-1.683l0.154 0.083c-1.154-0.668-2.12-1.305-3.048-1.989l0.090 0.063c-0.121-1.054-0.19-2.276-0.19-3.514 0-0.004 0-0.008 0-0.012v0.001c0-1.215 0.066-2.397 0.19-3.527 0.839-0.621 1.805-1.258 2.805-1.843l0.155-0.084c0.845-0.502 1.878-1.037 2.941-1.516l0.206-0.083zM14.475 10.87l-3.658 2.257 3.658 2.258 3.659-2.258-3.659-2.257zM6.901 13.546c-0.055 0.734-0.087 1.59-0.087 2.453s0.031 1.719 0.093 2.566l-0.007-0.113c-0.94-0.774-1.784-1.576-2.569-2.434l-0.017-0.019c0.802-0.877 1.646-1.679 2.544-2.419l0.042-0.034zM21.877 13.546c0.939 0.774 1.784 1.577 2.569 2.434l0.017 0.019c-0.802 0.876-1.646 1.678-2.543 2.418l-0.042 0.034c0.055-0.734 0.087-1.59 0.087-2.453s-0.031-1.719-0.093-2.566l0.007 0.113zM9.993 14.121v4.458l3.842 2.371v-4.457l-3.842-2.371zM18.954 14.123l-3.841 2.371v4.457l3.841-2.371v-4.457zM3.481 16.984c1.015 1.106 2.223 2.199 3.594 3.238 0.214 1.707 0.557 3.299 1.008 4.73-0.241 0.035-0.479 0.066-0.712 0.088-1.457 0.146-2.728 0.058-3.705-0.238s-1.643-0.778-2.026-1.442c-0.384-0.664-0.468-1.483-0.236-2.477s0.791-2.138 1.645-3.327c0.139-0.194 0.283-0.385 0.431-0.573zM25.297 16.984c0.15 0.192 0.295 0.383 0.43 0.573 0.855 1.189 1.414 2.333 1.646 3.327s0.147 1.813-0.236 2.477-1.050 1.145-2.028 1.442c-0.976 0.296-2.247 0.384-3.703 0.238-0.317-0.032-0.56-0.063-0.802-0.099l0.091 0.011c0.45-1.432 0.793-3.025 1.008-4.732 1.371-1.039 2.578-2.133 3.592-3.238zM20.257 21.257c-0.224 1.343-0.512 2.511-0.88 3.643l0.049-0.176c-1.34-0.297-2.483-0.646-3.588-1.071l0.17 0.057c1.652-0.809 3.044-1.625 4.37-2.53l-0.12 0.077zM8.521 21.257c1.206 0.828 2.597 1.644 4.045 2.362l0.203 0.091c-0.935 0.368-2.077 0.716-3.251 0.982l-0.166 0.032c-0.319-0.956-0.607-2.123-0.81-3.32l-0.021-0.146zM14.427 21.316l0.047 0.029 0.046-0.029h-0.093zM14.389 24.445c1.586 0.668 3.136 1.167 4.602 1.493-0.088 0.222-0.182 0.443-0.28 0.661-0.602 1.335-1.314 2.391-2.059 3.089-0.744 0.697-1.496 1.034-2.263 1.034s-1.517-0.337-2.263-1.034c-0.744-0.698-1.456-1.754-2.058-3.089-0.059-0.119-0.154-0.337-0.243-0.557l-0.037-0.104c1.465-0.326 3.015-0.826 4.601-1.492z"></path>
    </symbol>
    <symbol id="icon-star" viewBox="0 0 32 32">
       <path d="M6.763 0l3.527 14.47-10.29 10.767 14.47-3.527 10.768 10.29-3.527-14.47 10.29-10.768-14.47 3.527-10.768-10.289z"></path>
    </symbol>
    <symbol id="icon-procedures-scroll-circle" viewBox="0 0 32 32">
       <path d="M32 16c0 8.837-7.163 16-16 16s-16-7.163-16-16c0-8.837 7.163-16 16-16s16 7.163 16 16z"></path>
    </symbol>
    
  </defs>
</svg>
