<svg width="71.406738" height="35.498047" viewBox="0 0 71.4067 35.498" fill="none" xmlns="http://www.w3.org/2000/svg" xmlns:xlink="http://www.w3.org/1999/xlink">
	<desc>
			Created with Pixso.
	</desc>
	<defs/>
	<path id="logo" d="M0.660117 0.00011158L6.44612 0.00011158C7.81012 0.00011158 8.85878 0.102778 9.59212 0.308111C10.3401 0.498778 10.8681 0.814112 11.1761 1.25411C11.4841 1.67945 11.6381 2.28078 11.6381 3.05811L11.6381 4.81811C11.6381 5.21411 11.4768 5.58811 11.1541 5.94011C10.8461 6.29211 10.4795 6.53411 10.0541 6.66611L10.0541 6.77611C10.6115 6.83478 11.1175 7.07678 11.5721 7.50211C12.0415 7.91278 12.2761 8.37478 12.2761 8.88811L12.2761 11.0881C12.2761 12.2468 11.8141 13.0681 10.8901 13.5521C9.96612 14.0361 8.53612 14.2781 6.60012 14.2781L0.660117 14.2781L0.660117 0.00011158ZM6.44612 5.80811C6.98878 5.80811 7.39212 5.76411 7.65612 5.67611C7.92012 5.58811 8.09612 5.44878 8.18412 5.25811C8.28678 5.05278 8.33812 4.75945 8.33812 4.37811L8.33812 3.67411C8.33812 3.33678 8.29412 3.08745 8.20612 2.92611C8.11812 2.75011 7.93478 2.62545 7.65612 2.55211C7.39212 2.47878 6.96678 2.44211 6.38012 2.44211L4.09212 2.44211L4.09212 5.80811L6.44612 5.80811ZM6.53412 11.8361C7.37012 11.8361 7.96412 11.7408 8.31612 11.5501C8.66812 11.3594 8.84412 11.0514 8.84412 10.6261L8.84412 9.48211C8.84412 8.95411 8.70478 8.58011 8.42612 8.36011C8.16212 8.14011 7.68545 8.03011 6.99612 8.03011L4.09212 8.03011L4.09212 11.8361L6.53412 11.8361ZM19.839 14.4981C16.0696 14.4981 14.185 13.3468 14.185 11.0441L14.185 7.21611C14.185 5.88144 14.6103 4.91345 15.461 4.31211C16.3263 3.71078 17.6536 3.41011 19.443 3.41011C21.1296 3.41011 22.3616 3.70345 23.139 4.29011C23.931 4.86211 24.327 5.83745 24.327 7.21611L24.327 9.81211L17.419 9.81211L17.419 10.7801C17.419 11.3961 17.639 11.8361 18.079 12.1001C18.519 12.3641 19.311 12.4961 20.455 12.4961C21.511 12.4961 22.699 12.3421 24.019 12.0341L24.019 14.0801C22.7136 14.3588 21.3203 14.4981 19.839 14.4981ZM21.269 7.98611L21.269 6.44611C21.269 6.09411 21.1223 5.83011 20.829 5.65411C20.5503 5.47811 20.0736 5.39011 19.399 5.39011C18.6216 5.39011 18.101 5.47811 17.837 5.65411C17.5583 5.84478 17.419 6.10878 17.419 6.44611L17.419 7.98611L21.269 7.98611ZM29.796 14.4981C28.7987 14.4981 28.0507 14.4101 27.552 14.2341C27.068 14.0434 26.7234 13.7134 26.518 13.2441C26.3274 12.7601 26.232 12.0414 26.232 11.0881C26.232 10.2374 26.3347 9.57011 26.54 9.08611C26.76 8.60211 27.1047 8.25745 27.574 8.05211C28.058 7.83211 28.718 7.72211 29.554 7.72211L33.162 7.72211L33.162 6.99611C33.162 6.54144 33.096 6.20411 32.964 5.98411C32.8467 5.76411 32.6194 5.61011 32.282 5.52211C31.9594 5.43411 31.468 5.39011 30.808 5.39011C29.8987 5.39011 28.652 5.47811 27.068 5.65411L27.068 3.63011C28.2267 3.48345 29.5834 3.41011 31.138 3.41011C32.502 3.41011 33.5507 3.51278 34.284 3.71811C35.032 3.92345 35.5674 4.27545 35.89 4.77411C36.2127 5.27278 36.374 5.99878 36.374 6.95211L36.374 14.2781L33.228 14.2781L33.228 13.3101C32.9787 13.7354 32.6414 14.0361 32.216 14.2121C31.7907 14.4028 30.984 14.4981 29.796 14.4981ZM31.05 12.4961C31.6954 12.4961 32.1574 12.4741 32.436 12.4301C32.6414 12.4008 32.7807 12.3568 32.854 12.2981C32.942 12.2394 33.0154 12.1441 33.074 12.0121C33.1327 11.9094 33.162 11.7554 33.162 11.5501L33.162 9.48211L30.962 9.48211C30.4634 9.48211 30.1114 9.51878 29.906 9.59211C29.7007 9.65078 29.5614 9.78278 29.488 9.98811C29.4147 10.1788 29.378 10.5234 29.378 11.0221C29.378 11.5061 29.4147 11.8434 29.488 12.0341C29.5614 12.2248 29.7007 12.3494 29.906 12.4081C30.126 12.4668 30.5074 12.4961 31.05 12.4961ZM42.896 14.4981C41.532 14.4981 40.5713 14.2561 40.014 13.7721C39.4713 13.2734 39.2 12.4961 39.2 11.4401L39.2 3.63011L42.412 3.63011L42.412 11.0001C42.412 11.4108 42.4487 11.7188 42.522 11.9241C42.61 12.1294 42.7713 12.2761 43.006 12.3641C43.2553 12.4521 43.6293 12.4961 44.128 12.4961C44.7587 12.4961 45.2207 12.4594 45.514 12.3861C45.8073 12.2981 46.0053 12.1514 46.108 11.9461C46.2107 11.7408 46.262 11.4254 46.262 11.0001L46.262 3.63011L49.474 3.63011L49.474 14.2781L46.306 14.2781L46.306 12.9801C46.0713 13.9921 44.9347 14.4981 42.896 14.4981ZM57.608 14.4981C57.0653 14.4981 56.6106 14.4761 56.244 14.4321C55.8773 14.3881 55.5106 14.3001 55.144 14.1681C54.7333 14.0361 54.396 13.8528 54.132 13.6181C53.8826 13.3834 53.6773 13.0608 53.516 12.6501C53.34 12.2248 53.252 11.7334 53.252 11.1761L53.252 5.61011L51.096 5.61011L51.096 3.63011L53.252 3.63011L53.252 0.550112L56.464 0.550112L56.464 3.63011L59.39 3.63011L59.39 5.61011L56.464 5.61011L56.464 10.6261C56.464 11.1394 56.508 11.5281 56.596 11.7921C56.684 12.0414 56.8526 12.2248 57.102 12.3421C57.3513 12.4448 57.7326 12.4961 58.246 12.4961C58.4513 12.4961 58.8326 12.4594 59.39 12.3861L59.39 14.3881C58.7006 14.4614 58.1066 14.4981 57.608 14.4981ZM64.257 14.1901L60.011 3.63011L63.509 3.63011L65.907 11.1541L68.085 3.63011L71.407 3.63011L65.577 18.8541L62.321 18.8541L64.257 14.1901ZM0.000117242 33.1881L7.43612 23.4421L0.220117 23.4421L0.220117 21.0001L11.6601 21.0001L11.6601 23.0681L4.22412 32.8141L11.7921 32.8141L11.7921 35.2781L0.000117242 35.2781L0.000117242 33.1881ZM19.1028 35.4981C18.4428 35.4981 17.9002 35.4761 17.4748 35.4321C17.0495 35.3881 16.5948 35.3001 16.1108 35.1681C15.5828 35.0214 15.1575 34.8161 14.8348 34.5521C14.5122 34.2734 14.2408 33.8848 14.0208 33.3861C13.8008 32.9021 13.6908 32.3154 13.6908 31.6261L13.6908 28.4801C13.6908 27.7761 13.8008 27.1601 14.0208 26.6321C14.2408 26.1041 14.5268 25.6934 14.8788 25.4001C15.1868 25.1508 15.5902 24.9454 16.0888 24.7841C16.6022 24.6081 17.1008 24.4981 17.5848 24.4541C18.1422 24.4248 18.6482 24.4101 19.1028 24.4101C19.7775 24.4101 20.3128 24.4321 20.7088 24.4761C21.1195 24.5054 21.5668 24.5934 22.0508 24.7401C22.5788 24.9014 23.0042 25.1214 23.3268 25.4001C23.6642 25.6788 23.9502 26.0748 24.1848 26.5881C24.4048 27.1161 24.5148 27.7468 24.5148 28.4801L24.5148 31.6261C24.5148 32.2861 24.4048 32.8654 24.1848 33.3641C23.9795 33.8628 23.7082 34.2514 23.3708 34.5301C23.0775 34.7794 22.6742 34.9848 22.1608 35.1461C21.6622 35.2928 21.1708 35.3881 20.6868 35.4321C20.2468 35.4761 19.7188 35.4981 19.1028 35.4981ZM19.1028 33.4961C19.7042 33.4961 20.1588 33.4521 20.4668 33.3641C20.7748 33.2614 20.9875 33.1074 21.1048 32.9021C21.2368 32.6968 21.3028 32.3961 21.3028 32.0001L21.3028 27.9741C21.3028 27.3874 21.1488 26.9768 20.8408 26.7421C20.5328 26.5074 19.9535 26.3901 19.1028 26.3901C18.2522 26.3901 17.6728 26.5074 17.3648 26.7421C17.0568 26.9768 16.9028 27.3874 16.9028 27.9741L16.9028 32.0001C16.9028 32.3961 16.9615 32.6968 17.0788 32.9021C17.2108 33.1074 17.4308 33.2614 17.7388 33.3641C18.0468 33.4521 18.5015 33.4961 19.1028 33.4961ZM27.0184 24.6301L30.1864 24.6301L30.1864 25.9281C30.4357 24.9161 31.5723 24.4101 33.5964 24.4101C34.9604 24.4101 35.9137 24.6594 36.4564 25.1581C37.0137 25.6421 37.2924 26.4121 37.2924 27.4681L37.2924 35.2781L34.0804 35.2781L34.0804 27.8861C34.0804 27.4754 34.0364 27.1674 33.9484 26.9621C33.875 26.7568 33.7137 26.6101 33.4644 26.5221C33.2297 26.4341 32.863 26.3901 32.3644 26.3901C31.7337 26.3901 31.2717 26.4341 30.9784 26.5221C30.685 26.5954 30.487 26.7348 30.3844 26.9401C30.2817 27.1454 30.2304 27.4608 30.2304 27.8861L30.2304 35.2781L27.0184 35.2781L27.0184 24.6301ZM45.4483 35.4981C41.679 35.4981 39.7943 34.3468 39.7943 32.0441L39.7943 28.2161C39.7943 26.8814 40.2197 25.9134 41.0703 25.3121C41.9357 24.7108 43.263 24.4101 45.0523 24.4101C46.739 24.4101 47.971 24.7034 48.7483 25.2901C49.5403 25.8621 49.9363 26.8374 49.9363 28.2161L49.9363 30.8121L43.0283 30.8121L43.0283 31.7801C43.0283 32.3961 43.2483 32.8361 43.6883 33.1001C44.1283 33.3641 44.9203 33.4961 46.0643 33.4961C47.1203 33.4961 48.3083 33.3421 49.6283 33.0341L49.6283 35.0801C48.323 35.3588 46.9297 35.4981 45.4483 35.4981ZM46.8783 28.9861L46.8783 27.4461C46.8783 27.0941 46.7317 26.8301 46.4383 26.6541C46.1597 26.4781 45.683 26.3901 45.0083 26.3901C44.231 26.3901 43.7103 26.4781 43.4463 26.6541C43.1677 26.8448 43.0283 27.1088 43.0283 27.4461L43.0283 28.9861L46.8783 28.9861Z" fill="#2B7FFF" fill-opacity="1.000000" fill-rule="evenodd"/>
</svg>
